<svg width="9.000000" height="17.000000" viewBox="0 0 9 17" fill="none" xmlns="http://www.w3.org/2000/svg" xmlns:xlink="http://www.w3.org/1999/xlink">
	<desc>
			Created with Pixso.
	</desc>
	<defs/>
	<path id="Vector" d="M0.75 10.65L6.48 16.38C6.72 16.62 7.03 16.75 7.36 16.75C7.69 16.75 8.01 16.62 8.25 16.38C8.36 16.27 8.45 16.13 8.52 15.98C8.58 15.82 8.61 15.66 8.61 15.5C8.61 15.33 8.58 15.17 8.52 15.01C8.45 14.86 8.36 14.72 8.25 14.61L2.5 8.88C2.38 8.77 2.28 8.63 2.22 8.48C2.16 8.32 2.13 8.16 2.13 8C2.13 7.83 2.16 7.67 2.22 7.51C2.28 7.36 2.38 7.22 2.5 7.11L8.25 1.38C8.48 1.15 8.61 0.83 8.61 0.5C8.62 0.17 8.48 -0.15 8.25 -0.39C8.02 -0.62 7.7 -0.75 7.37 -0.76C7.04 -0.76 6.72 -0.63 6.48 -0.39L0.75 5.34C0.04 6.05 -0.35 7 -0.35 8C-0.35 8.99 0.04 9.94 0.75 10.65Z" fill="#002343" fill-opacity="1.000000" fill-rule="nonzero"/>
</svg>
